<?xml version="1.0" standalone="no"?>
<!DOCTYPE svg PUBLIC "-//W3C//DTD SVG 20010904//EN" "http://www.w3.org/TR/2001/REC-SVG-20010904/DTD/svg10.dtd">
<!-- Created using Krita: https://krita.org -->
<svg xmlns="http://www.w3.org/2000/svg" 
    xmlns:xlink="http://www.w3.org/1999/xlink"
    xmlns:krita="http://krita.org/namespaces/svg/krita"
    xmlns:sodipodi="http://sodipodi.sourceforge.net/DTD/sodipodi-0.dtd"
    width="864pt"
    height="864pt"
    viewBox="0 0 864 864">
<defs/>
<path id="shape0" transform="matrix(1.6875 0 0 1.6875 51.6600015195538 4.32000020013471)" fill="#7171ff" stroke-opacity="0" stroke="#000000" stroke-width="0" stroke-linecap="square" stroke-linejoin="bevel" d="M75.4133 0C135.768 0 258.45 0.296485 259.345 0.448045C268.657 0.703678 287.734 4.48162 301.664 7.654C323.551 12.6384 343.517 22.2446 361.87 35.2493C362.617 35.779 364.029 36.8292 366.107 38.4L399.893 38.72C410.073 48.5577 417.142 55.932 421.101 60.8428C434.794 77.8271 442.769 97.6138 447.399 118.777C449.342 127.659 451.241 136.602 452.262 145.619C453.294 154.731 453.216 163.968 453.646 173.664C441.796 173.664 430.731 173.664 419.867 173.664C419.012 189.555 418.184 204.943 417.338 220.67C429.829 220.67 441.441 220.67 453.982 220.67C447.754 275.721 434.302 328.057 406.103 376.846C414.92 376.846 422.613 376.846 430.704 376.846C418.769 397.403 404.406 415.358 388.369 431.919C373.968 446.79 357.068 458.56 339.569 469.566C335.483 472.136 328.16 475.684 317.601 480.212L283.81 480.815C270.507 486.003 261.147 489.511 255.731 491.339C237.127 497.616 218.296 503.127 198.712 505.53C190.608 506.524 179.503 509.447 171.503 509.493C114.482 509.493 57.4891 509.909 0 509.493C0.799126 503.708 2.56099 494.01 5.2856 480.4C21.9516 480.462 33.9655 480.493 41.3273 480.493C48.2577 445.847 55.1685 411.297 62.1543 376.373C53.6905 376.373 45.7264 376.373 37.1693 376.373C47.5807 324.304 57.914 272.625 68.3579 220.393C56.0011 220.393 43.7901 220.393 31.3527 220.393C34.5519 204.444 37.6366 189.066 40.7603 173.493C47.6009 173.493 58.9564 173.458 74.8267 173.387C80.0586 146.619 83.9405 126.974 86.4722 114.452C90.6209 93.9328 95.011 73.4627 99.2167 52.9549C100.174 48.2891 100.805 43.5564 101.679 38.2934C90.0541 38.2934 79.3075 38.2934 68.1221 38.2934C68.7557 34.7416 69.2812 31.7036 69.8415 28.672M341.036 131.588C335.207 117.582 326.097 106.042 313.586 97.6202C297.114 86.5321 278.217 81.707 258.773 80.7426C244.257 80.0225 221.472 79.9359 190.419 80.4826C187.854 92.7467 186.079 101.321 185.094 106.205C182.291 120.109 177.713 142.609 171.36 173.707C155.529 173.564 144.262 173.493 137.559 173.493C134.428 189.148 131.336 204.606 128.162 220.477C140.972 220.477 152.943 220.477 165.123 220.477C154.736 272.481 144.407 324.189 133.966 376.461C142.501 376.461 150.271 376.461 158.884 376.461C155.395 394.078 152.019 411.127 148.58 428.49C167.963 428.49 186.954 428.834 205.922 428.326C213.848 428.114 221.79 426.409 229.612 424.83C245.91 421.538 261.306 415.658 275.755 407.418C290.033 399.277 302.934 389.371 314.552 376.666C306.294 376.666 298.722 376.666 290 376.666C328.543 331.212 343.539 277.636 350.233 220.316C337.813 220.316 325.731 220.316 313.364 220.316C314.226 204.537 315.061 189.25 315.924 173.467C326.6 173.467 337.333 173.467 348.439 173.467C348.439 172.017 348.439 171.055 348.439 170.092C348.437 157.056 345.326 144.601 341.036 131.588Z" sodipodi:nodetypes="ccccccccccccccccccccccccccccccccccccccccccccccccccccccccccc"/>
</svg>
